<svg xmlns="http://www.w3.org/2000/svg" viewBox="0 0 512 512">
  <defs>
    <linearGradient id="shield-gradient" x1="0%" y1="0%" x2="100%" y2="100%">
      <stop offset="0%" style="stop-color:#60A5FA;stop-opacity:1" /> <!-- Blue-400 -->
      <stop offset="100%" style="stop-color:#2563EB;stop-opacity:1" /> <!-- Blue-600 -->
    </linearGradient>
  </defs>
  <!-- Shield Body -->
  <path d="M256 32 C256 32 64 64 64 192 C64 320 256 480 256 480 C256 480 448 320 448 192 C448 64 256 32 256 32 Z" fill="url(#shield-gradient)"/>
  
  <!-- Right Side Shadow (for 3D effect) -->
  <path d="M256 32 C256 32 256 480 256 480 C256 480 448 320 448 192 C448 64 256 32 256 32 Z" fill="#000000" opacity="0.1"/>
  
  <!-- Inner Highlight -->
  <path d="M256 50 C256 50 100 80 100 192 C100 290 256 430 256 430 V 50 Z" fill="#ffffff" opacity="0.1"/>
</svg>